<svg width="364" height="307" xmlns="http://www.w3.org/2000/svg" xmlns:xlink="http://www.w3.org/1999/xlink" xml:space="preserve" overflow="hidden"><defs><clipPath id="clip0"><rect x="631" y="473" width="364" height="307"/></clipPath></defs><g clip-path="url(#clip0)" transform="translate(-631 -473)"><path d="M197.951 199.55C222.895 175.566 224.174 135.911 200.509 110.328 225.773 123.44 246.559 143.586 258.711 157.018 245.92 169.49 224.174 188.038 197.951 199.55ZM72.2729 133.673C82.826 124.719 94.0188 117.044 106.171 110.648 82.826 136.231 84.1052 175.566 109.049 199.55 82.826 188.038 60.7604 169.49 48.2885 157.018 55.6437 148.703 63.6385 141.028 72.2729 133.673L72.2729 133.673ZM153.5 204.667C125.358 204.667 102.333 181.642 102.333 153.5 102.333 125.358 125.358 102.333 153.5 102.333 181.642 102.333 204.667 125.358 204.667 153.5 204.667 181.642 181.642 204.667 153.5 204.667ZM277.899 148.064C259.351 126.318 210.743 76.75 153.5 76.75 96.2573 76.75 47.649 126.318 29.101 148.064 24.3042 153.82 24.624 161.815 29.7406 167.251 48.6083 187.078 96.8969 230.25 153.5 230.25 210.103 230.25 258.392 187.078 277.579 167.251 282.376 162.134 282.696 153.82 277.899 148.064Z" transform="matrix(1.18567 0 0 1 631 473)"/><path d="M185.479 153.5C185.479 171.162 171.162 185.479 153.5 185.479 135.838 185.479 121.521 171.162 121.521 153.5 121.521 135.838 135.838 121.521 153.5 121.521 171.162 121.521 185.479 135.838 185.479 153.5Z" transform="matrix(1.18567 0 0 1 631 473)"/></g></svg>