<svg width="331" height="332" xmlns="http://www.w3.org/2000/svg" xmlns:xlink="http://www.w3.org/1999/xlink" xml:space="preserve" overflow="hidden"><defs><clipPath id="clip0"><rect x="34" y="413" width="331" height="332"/></clipPath></defs><g clip-path="url(#clip0)" transform="translate(-34 -413)"><path d="M193.083 203.427C192.79 203.427 192.518 203.489 192.232 203.513 191.946 203.537 191.67 203.427 191.377 203.427L75.8542 203.427C70.1413 203.427 65.5104 208.058 65.5104 213.771 65.5104 219.484 70.1413 224.115 75.8542 224.115L191.377 224.115C191.67 224.115 191.942 224.053 192.228 224.028 192.514 224.004 192.787 224.115 193.083 224.115 198.796 224.118 203.424 228.752 203.421 234.465 203.417 240.177 198.784 244.806 193.071 244.802 189.31 244.8 185.846 242.756 184.026 239.465 181.337 234.424 175.072 232.517 170.031 235.205 164.99 237.894 163.084 244.159 165.772 249.2 165.827 249.303 165.883 249.404 165.941 249.505 174.252 264.493 193.139 269.907 208.127 261.598 223.116 253.287 228.53 234.4 220.22 219.412 214.751 209.548 204.361 203.428 193.083 203.427Z" transform="matrix(1 0 0 1.00302 34 413)"/><path d="M58.6146 141.365 155.156 141.365C176.103 141.362 193.081 124.379 193.079 103.433 193.076 82.4862 176.093 65.5077 155.147 65.5104 136.088 65.5128 119.991 79.6583 117.539 98.5587 116.81 104.226 120.813 109.411 126.48 110.14 132.147 110.869 137.332 106.867 138.061 101.2 139.297 91.7591 147.952 85.108 157.393 86.3438 166.834 87.5795 173.485 96.2345 172.249 105.675 171.125 114.258 163.812 120.676 155.156 120.677L58.6146 120.677C52.9017 120.677 48.2708 125.308 48.2708 131.021 48.2708 136.734 52.9017 141.365 58.6146 141.365Z" transform="matrix(1 0 0 1.00302 34 413)"/><path d="M258.594 79.3021C230.007 79.3248 206.852 102.517 206.875 131.104 206.878 135.424 207.423 139.727 208.496 143.913 209.916 149.446 215.554 152.781 221.087 151.36 226.621 149.94 229.955 144.302 228.535 138.768 224.256 122.173 234.24 105.251 250.836 100.972 267.431 96.6934 284.353 106.678 288.632 123.273 292.911 139.869 282.926 156.791 266.331 161.069 263.804 161.721 261.204 162.051 258.594 162.052L31.0312 162.052C25.3186 162.052 20.6875 166.683 20.6875 172.396 20.6875 178.109 25.3186 182.74 31.0312 182.74L258.594 182.74C287.157 182.74 310.312 159.584 310.312 131.021 310.312 102.457 287.157 79.3021 258.594 79.3021Z" transform="matrix(1 0 0 1.00302 34 413)"/></g></svg>