<svg width="313" height="314" xmlns="http://www.w3.org/2000/svg" xmlns:xlink="http://www.w3.org/1999/xlink" xml:space="preserve" overflow="hidden"><defs><clipPath id="clip0"><rect x="23" y="27" width="313" height="314"/></clipPath></defs><g clip-path="url(#clip0)" transform="translate(-23 -27)"><path d="M278.766 246.488 238.01 205.732C232.468 200.19 224.969 198.233 217.796 199.538L203.45 185.192C216.166 168.89 223.665 148.023 223.665 125.852 223.665 72.0552 179.649 28.0396 125.852 28.0396 72.0552 28.0396 28.0396 72.0552 28.0396 125.852 28.0396 179.649 72.0552 223.665 125.852 223.665 148.023 223.665 168.564 216.166 185.192 203.45L199.538 217.796C198.233 224.969 200.19 232.468 205.732 238.01L246.488 278.766C251.052 283.33 256.921 285.612 262.79 285.612 268.658 285.612 274.527 283.33 279.092 278.766 287.569 269.636 287.569 255.291 278.766 246.488ZM125.526 203.776C82.4885 203.776 47.276 168.564 47.276 125.526 47.276 82.4885 82.4885 47.276 125.526 47.276 168.564 47.276 203.776 82.4885 203.776 125.526 203.776 168.564 168.564 203.776 125.526 203.776Z" transform="matrix(1 0 0 1.00319 23 27)"/></g></svg>